<svg width="66" height="70" viewBox="0 0 66 70" fill="none" xmlns="http://www.w3.org/2000/svg">
<path fill-rule="evenodd" clip-rule="evenodd" d="M26.2636 6.72984L28.9351 8.87715L28.0359 12.1846C27.8835 12.7452 28.0888 13.3279 28.5585 13.6694C28.7947 13.8425 29.0799 13.9359 29.3727 13.9363C29.6356 13.9363 29.8992 13.8603 30.1324 13.7077L33 11.8305L35.8678 13.7077C36.354 14.0258 36.9716 14.0112 37.4424 13.669C37.9117 13.3275 38.1167 12.7449 37.9644 12.1845L37.0652 8.87715L39.7365 6.72998C40.1893 6.36644 40.366 5.77445 40.1869 5.22197C40.0075 4.66908 39.5165 4.29352 38.936 4.26535L35.5126 4.09842L34.2961 0.894277V0.894004C34.0896 0.350957 33.581 0 33.0001 0C32.4191 0 31.9103 0.350957 31.7042 0.894004L30.4876 4.09842L27.0643 4.26535C26.4837 4.29352 25.9926 4.66908 25.8138 5.22088C25.6337 5.77391 25.8106 6.36644 26.2636 6.72984ZM31.1179 6.25775C31.3873 6.24477 31.6471 6.15343 31.8653 5.99494C32.0835 5.83645 32.2508 5.6177 32.3465 5.36553L33 3.6441L33.6535 5.36566C33.7492 5.61775 33.9163 5.83644 34.1345 5.99491C34.3526 6.15337 34.6123 6.24472 34.8816 6.25775L36.7206 6.34744L35.2855 7.50094C35.0753 7.66986 34.9189 7.89645 34.8356 8.15291C34.7522 8.40938 34.7455 8.6846 34.8163 8.94482L35.2993 10.7216L33.7596 9.71373C33.5339 9.56571 33.27 9.48681 33.0001 9.48671C32.7303 9.48661 32.4662 9.56533 32.2405 9.71318L30.7 10.7216L31.1831 8.94428C31.2538 8.68412 31.2471 8.40898 31.1637 8.15261C31.0803 7.89623 30.924 7.66975 30.7138 7.50094L29.2788 6.34744L31.1179 6.25775ZM41.6812 9.6868L44.3528 11.834L43.4536 15.1415C43.3013 15.702 43.5065 16.2847 43.9763 16.6262C44.2125 16.7993 44.4976 16.8927 44.7905 16.8931C45.0534 16.8931 45.317 16.8171 45.5502 16.6645L48.4179 14.7874L51.2857 16.6645C51.7716 16.9825 52.3889 16.9678 52.8603 16.6258C53.3298 16.2843 53.5347 15.7016 53.3823 15.1415L52.4831 11.834L55.1544 9.68693C55.6075 9.32271 55.7841 8.73045 55.6048 8.17879C55.4254 7.6259 54.9344 7.25033 54.3539 7.22217L50.9305 7.05523L49.714 3.85109V3.85082C49.5077 3.30777 48.9991 2.95682 48.4182 2.95682C47.8371 2.95682 47.3284 3.30777 47.1222 3.85082L45.9057 7.05523L42.4824 7.22217C41.9017 7.25033 41.4106 7.6259 41.2318 8.17769C41.0519 8.73004 41.2283 9.32217 41.6812 9.6868ZM46.5358 9.21443C46.8052 9.20145 47.065 9.11011 47.2832 8.95162C47.5014 8.79313 47.6687 8.57437 47.7644 8.32221L48.4177 6.60078L49.0714 8.32234C49.1671 8.57443 49.3342 8.79312 49.5524 8.95159C49.7706 9.11005 50.0302 9.2014 50.2995 9.21443L52.1385 9.30412L50.7033 10.4578C50.493 10.6266 50.3366 10.8532 50.2533 11.1096C50.17 11.3661 50.1633 11.6413 50.2342 11.9015L50.7172 13.6783L49.1775 12.6704C48.9519 12.5223 48.6879 12.4433 48.418 12.4432C48.1481 12.4431 47.884 12.5219 47.6583 12.6699L46.1179 13.6782L46.601 11.9012C46.6717 11.641 46.6649 11.3659 46.5816 11.1094C46.4982 10.853 46.3419 10.6265 46.1317 10.4576L44.6965 9.30412L46.5358 9.21443ZM10.8455 9.6868L13.517 11.834L12.6182 15.1405C12.4652 15.7015 12.6702 16.2846 13.1405 16.6264C13.3768 16.7994 13.6619 16.8928 13.9548 16.8934C14.2178 16.8934 14.4814 16.8174 14.7144 16.6646L17.5821 14.7875L20.4499 16.6646C20.936 16.9829 21.5536 16.968 22.0239 16.6264C22.4938 16.285 22.6989 15.7021 22.5465 15.1416L21.6473 11.8341L24.3194 9.68652C24.772 9.3223 24.9483 8.73018 24.769 8.17893C24.5896 7.62603 24.0986 7.25047 23.5181 7.2223L20.0947 7.05537L18.8782 3.85123V3.85096C18.6718 3.30791 18.1633 2.95695 17.5823 2.95695C17.0007 2.95695 16.4919 3.30832 16.2867 3.85096L15.07 7.05537L11.6466 7.2223C11.0666 7.25047 10.5756 7.62562 10.3956 8.17893C10.2163 8.73113 10.393 9.32299 10.8455 9.6868ZM15.7 9.21443C15.9694 9.20153 16.2292 9.11021 16.4474 8.95171C16.6656 8.79321 16.8328 8.57441 16.9284 8.32221L17.5821 6.60092L18.2356 8.32234C18.3313 8.57443 18.4984 8.79312 18.7166 8.95159C18.9347 9.11005 19.1944 9.2014 19.4637 9.21443L21.3027 9.30412L19.8668 10.458C19.6569 10.6271 19.5008 10.8536 19.4176 11.1099C19.3344 11.3663 19.3278 11.6413 19.3984 11.9014L19.8814 13.6782L18.3417 12.6703C18.116 12.5223 17.8521 12.4434 17.5822 12.4433C17.3124 12.4432 17.0483 12.5219 16.8226 12.6697L15.2822 13.678L15.7652 11.9011C15.836 11.6409 15.8292 11.3657 15.7459 11.1093C15.6625 10.8528 15.5061 10.6263 15.2959 10.4575L13.8607 9.30398L15.7 9.21443ZM21.8247 26.6104C22.6453 25.7566 23.1516 24.5983 23.1516 23.3234C23.1516 20.7056 21.0218 18.5757 18.4039 18.5757C15.786 18.5757 13.6562 20.7055 13.6562 23.3234C13.6562 24.5987 14.1626 25.7574 14.9837 26.6112C12.855 27.5643 11.181 29.3936 10.4544 31.7401C10.1928 32.5844 10.3424 33.4749 10.8644 34.1831C11.3865 34.8914 12.193 35.2976 13.0772 35.2976H22.3024V36.1562C22.3024 38.1827 23.9512 39.8314 25.9777 39.8314H40.0225C42.0487 39.8314 43.6975 38.1827 43.6977 36.1562V35.298H52.923C53.8072 35.298 54.6136 34.8917 55.1358 34.1835C55.6578 33.4752 55.8073 32.5847 55.5457 31.7403C54.8192 29.3938 53.1451 27.5645 51.0165 26.6115C51.8376 25.7575 52.344 24.599 52.344 23.3237C52.344 20.7059 50.2142 18.576 47.5963 18.576C44.9784 18.576 42.8486 20.7058 42.8486 23.3237C42.8486 24.5986 43.3548 25.7567 44.1754 26.6105C43.1421 27.0746 42.2159 27.7471 41.4547 28.5858C40.2672 27.077 38.6968 25.9141 36.9071 25.2185C38.174 24.1216 38.9777 22.5035 38.9777 20.7002C38.9777 17.4042 36.2963 14.7224 33.0001 14.7224C29.704 14.7224 27.0224 17.404 27.0224 20.7002C27.0224 22.5035 27.8261 24.1216 29.093 25.2185C27.3033 25.9142 25.7329 27.077 24.5454 28.5858C23.7842 27.747 22.858 27.0745 21.8247 26.6104ZM18.4039 20.7632C19.8155 20.7632 20.9641 21.9116 20.9641 23.3234C20.9641 24.7352 19.8156 25.8836 18.4039 25.8836C16.9921 25.8836 15.8437 24.7352 15.8437 23.3234C15.8437 21.9116 16.9923 20.7632 18.4039 20.7632ZM12.6253 32.8852C12.5728 32.8148 12.538 32.7328 12.5239 32.6461C12.5097 32.5593 12.5166 32.4705 12.544 32.387C13.3436 29.8054 15.6983 28.071 18.4037 28.071C20.3707 28.071 22.1672 28.9863 23.3222 30.5435C22.927 31.3591 22.6369 32.2215 22.459 33.1101H13.0772C12.9893 33.1116 12.9024 33.092 12.8238 33.0529C12.7451 33.0137 12.6771 32.9562 12.6253 32.8852ZM45.036 23.3237C45.036 21.912 46.1844 20.7635 47.5962 20.7635C49.008 20.7635 50.1564 21.9119 50.1564 23.3237C50.1564 24.7354 49.008 25.8839 47.5962 25.8839C46.1844 25.8839 45.036 24.7353 45.036 23.3237ZM47.5962 28.0712C50.3017 28.0712 52.6566 29.8058 53.456 32.3874C53.4833 32.4709 53.4902 32.5597 53.4761 32.6464C53.462 32.7331 53.4272 32.8152 53.3748 32.8856C53.323 32.9566 53.2549 33.0142 53.1762 33.0533C53.0976 33.0925 53.0106 33.1122 52.9228 33.1107H43.541C43.363 32.222 43.0729 31.3595 42.6777 30.5438C43.8326 28.9867 45.6292 28.0712 47.5962 28.0712ZM33.0001 16.9099C35.09 16.9099 36.7902 18.6103 36.7902 20.7002C36.7902 22.7901 35.09 24.4903 33.0001 24.4903C30.9102 24.4903 29.2099 22.7901 29.2099 20.7002C29.2099 18.6103 30.9102 16.9099 33.0001 16.9099ZM33 26.6777C37.3696 26.6777 41.0181 29.9351 41.51 34.264V36.1562C41.5099 36.9765 40.8426 37.644 40.0224 37.644H25.9777C25.1574 37.644 24.4899 36.9767 24.4899 36.1564V34.264C24.9818 29.9351 28.6303 26.6777 33 26.6777ZM65.1345 44.5181C64.5075 43.4712 61.9354 40.3625 55.1621 44.3075L43.2727 51.2323C42.7088 51.5607 42.1357 51.7975 41.5393 51.9449C41.7524 51.5858 41.9207 51.1839 42.039 50.7425C42.6519 48.4542 41.2925 46.0652 38.9441 45.3038C38.8971 45.2888 38.8493 45.2767 38.8008 45.2678C35.3872 44.6522 32.0167 43.4336 29.3083 42.4546C28.3662 42.114 27.4765 41.7923 26.7195 41.5469C23.6604 40.5542 20.9 41.7808 18.6023 43.1111L9.7906 48.2128L8.84341 46.5391C8.4703 45.8795 7.86067 45.4043 7.12718 45.2011C6.39396 44.998 5.62642 45.0915 4.96716 45.4649L1.63136 47.3528C0.266495 48.1253 -0.215576 49.8641 0.557022 51.2291L10.3643 68.558C10.8869 69.4816 11.852 70.0008 12.8443 70.0008C13.3186 70.0008 13.7992 69.8821 14.2405 69.6324L17.5765 67.7444C18.2359 67.3712 18.7111 66.7617 18.9142 66.0282C19.1175 65.2947 19.024 64.5275 18.6507 63.868L17.791 62.3491L19.7601 61.2123L34.9724 65.2883C35.8359 65.5197 36.6837 65.6352 37.5132 65.6352C39.1669 65.6352 40.748 65.1759 42.236 64.2597L63.8123 50.9739C65.7965 49.7526 66.4266 46.6755 65.1345 44.5181ZM16.8066 65.444C16.7841 65.5271 16.7454 65.605 16.6926 65.673C16.6399 65.7411 16.5741 65.7981 16.4993 65.8406L13.1633 67.7287C13.0883 67.771 13.0056 67.798 12.9201 67.8082C12.8345 67.8184 12.7478 67.8115 12.665 67.788C12.5818 67.7655 12.504 67.7268 12.4359 67.674C12.3678 67.6213 12.3108 67.5556 12.2682 67.4807L2.46083 50.1516C2.41852 50.0765 2.39149 49.9939 2.38131 49.9083C2.37112 49.8228 2.37798 49.7361 2.40149 49.6532C2.42402 49.5701 2.46279 49.4922 2.51556 49.4241C2.56833 49.356 2.63407 49.299 2.70898 49.2565L6.04478 47.3685C6.14202 47.3135 6.25186 47.2846 6.3636 47.2846C6.42349 47.2846 6.48364 47.2928 6.54312 47.3093C6.62626 47.3318 6.70412 47.3705 6.7722 47.4233C6.84027 47.476 6.89722 47.5418 6.93974 47.6167L15.3566 62.4885C15.357 62.4893 15.3572 62.4902 15.3578 62.4909L15.3587 62.4925L16.7471 64.9455C16.8327 65.0966 16.8538 65.2736 16.8066 65.444ZM62.6656 49.1113L41.0893 62.3971C39.3879 63.4447 37.52 63.7068 35.5388 63.1753L19.8889 58.982C19.7502 58.9448 19.6055 58.9353 19.4631 58.954C19.3207 58.9728 19.1834 59.0194 19.059 59.0912L16.7136 60.4451L10.8682 50.1167L19.6985 45.0043C21.6732 43.8609 23.8089 42.9023 26.0447 43.6279C26.7671 43.8621 27.6001 44.1632 28.5647 44.5119C31.3298 45.5116 34.7662 46.7538 38.3332 47.4064C39.5545 47.8346 40.2374 49.0141 39.9259 50.1766C39.5161 51.7057 38.2399 51.8969 37.224 51.7804C35.4747 51.4207 33.8117 50.946 32.052 50.4435C31.2166 50.2049 30.3527 49.9581 29.4646 49.7202C29.1844 49.6452 28.8858 49.6845 28.6346 49.8295C28.3834 49.9745 28.2001 50.2134 28.125 50.4936C28.0499 50.7738 28.0892 51.0724 28.2343 51.3236C28.3793 51.5748 28.6182 51.7581 28.8984 51.8332C29.7692 52.0665 30.6242 52.3106 31.4511 52.5469C33.2663 53.0653 34.9809 53.5551 36.828 53.9327C36.8351 53.9342 36.8422 53.9346 36.8491 53.936C36.8567 53.9373 36.8638 53.9395 36.8714 53.9407L38.3498 54.1811C40.5702 54.5367 42.5405 54.1903 44.3733 53.123L56.2627 46.1982C59.6645 44.2173 62.2794 44.0094 63.2576 45.6425C63.9307 46.7656 63.6319 48.5164 62.6656 49.1113ZM7.12622 50.916C7.15047 51.0715 7.14367 51.2302 7.1062 51.3831C7.06873 51.5359 7.00135 51.6798 6.90794 51.8065C6.81452 51.9331 6.69694 52.04 6.56198 52.121C6.42701 52.2019 6.27735 52.2553 6.12163 52.2781C5.96591 52.3008 5.80722 52.2925 5.65473 52.2536C5.50225 52.2147 5.35899 52.1459 5.23323 52.0513C5.10748 51.9567 5.00172 51.8381 4.92207 51.7023C4.84242 51.5666 4.79046 51.4164 4.76919 51.2605C4.72676 50.9495 4.80884 50.6342 4.99758 50.3834C5.18632 50.1325 5.46646 49.9663 5.77708 49.9209C6.0877 49.8755 6.40369 49.9546 6.65634 50.1409C6.90898 50.3273 7.07785 50.6058 7.12622 50.916Z" fill="url(#paint0_linear_25_1143)"/>
<defs>
<linearGradient id="paint0_linear_25_1143" x1="0.194167" y1="35.007" x2="65.7978" y2="35.007" gradientUnits="userSpaceOnUse">
<stop stop-color="#3CAB90"/>
<stop offset="1" stop-color="#0E6752"/>
</linearGradient>
</defs>
</svg>
